#!OML:ASF C:\Vicon Data\Big\jianyuan-11\jianyuan\Session 1\male.ASF
:FULLY-SPECIFIED
:DEGREES
14
root -7.938608 16.084359 -22.647238 -7.283099 3.069880 12.850366
lowerback 1.392271 0.426570 -7.926703 
upperback 6.123968 1.197026 -1.706450 
thorax 5.525589 0.419919 2.705831 
lowerneck -8.044867 -12.693935 -14.868498 
upperneck 22.208121 -17.614321 13.880491 
head 11.132293 -7.723162 5.068528 
rclavicle 0.000000 0.000000 
rhumerus -49.633854 -32.283090 -68.010885 
rradius 33.548314 
rwrist 0.219116 
rhand -17.039967 -0.522306 
rfingers 0.000000 
rthumb 9.196769 -30.301738 
lclavicle 0.000000 0.000000 
lhumerus -8.825015 -3.897392 91.896525 
lradius 60.053041 
lwrist -6.826335 
lhand -12.082613 -10.423839 
lfingers 0.000000 
lthumb 13.977404 19.086320 
rfemur -24.051511 -5.166503 21.257098 
rtibia 36.297245 
rfoot -6.496674 -14.597756 
rtoes 23.253412 
lfemur 12.789525 11.826812 -17.988145 
ltibia 43.787879 
lfoot 2.308722 15.552613 
ltoes 11.082048 
15
root -7.954188 16.072188 -22.550741 -7.392920 2.570245 12.692939
lowerback 1.423180 0.515463 -7.726803 
upperback 6.125838 1.302139 -1.665786 
thorax 5.497504 0.479624 2.639790 
lowerneck -8.200900 -12.638258 -14.704432 
upperneck 22.239632 -17.513398 13.706969 
head 11.120367 -7.675970 4.989544 
rclavicle 0.000000 0.000000 
rhumerus -49.295139 -32.174981 -68.261845 
rradius 33.538338 
rwrist 0.439220 
rhand -16.696149 -0.492508 
rfingers 0.000000 
rthumb 9.528511 -30.256814 
lclavicle 0.000000 0.000000 
lhumerus -9.164688 -3.663858 91.833080 
lradius 60.041589 
lwrist -6.752026 
lhand -12.130227 -10.362960 
lfingers 0.000000 
lthumb 13.931545 19.150350 
rfemur -23.931363 -5.170849 21.627090 
rtibia 36.792443 
rfoot -6.677308 -14.385315 
rtoes 21.551011 
lfemur 12.069746 12.155747 -17.494206 
ltibia 45.533032 
lfoot 2.417040 16.421554 
ltoes 12.793070 
16
root -7.972255 16.059479 -22.453697 -7.596561 2.062687 12.558435
lowerback 1.550511 0.622239 -7.578849 
upperback 6.152485 1.429975 -1.632559 
thorax 5.439616 0.551103 2.593857 
lowerneck -8.304723 -12.587497 -14.548098 
upperneck 22.237934 -17.433928 13.593064 
head 11.097360 -7.635879 4.932369 
rclavicle 0.000000 0.000000 
rhumerus -48.960115 -32.020088 -68.553155 
rradius 33.557108 
rwrist 0.754628 
rhand -16.149203 -0.511766 
rfingers 0.000000 
rthumb 10.056228 -30.251461 
lclavicle 0.000000 0.000000 
lhumerus -9.526348 -3.436479 91.762046 
lradius 60.001922 
lwrist -6.744145 
lhand -12.128451 -10.384072 
lfingers 0.000000 
lthumb 13.933259 19.129047 
rfemur -23.692249 -5.118814 21.942557 
rtibia 37.291472 
rfoot -6.980023 -14.169459 
rtoes 20.795463 
lfemur 11.402859 12.394083 -17.062629 
ltibia 47.292565 
lfoot 2.444657 17.602354 
ltoes 14.417171 
17
root -7.990380 16.044949 -22.354685 -7.846913 1.576489 12.408353
lowerback 1.725591 0.719338 -7.392123 
upperback 6.184541 1.542854 -1.611992 
thorax 5.362835 0.618696 2.511421 
lowerneck -8.305805 -12.530291 -14.406924 
upperneck 22.168933 -17.361868 13.545168 
head 11.039387 -7.600066 4.905101 
rclavicle 0.000000 0.000000 
rhumerus -48.616406 -31.801009 -68.937332 
rradius 33.581981 
rwrist 1.144149 
rhand -15.931088 -0.495738 
rfingers 0.000000 
rthumb 10.266684 -30.225148 
lclavicle 0.000000 0.000000 
lhumerus -9.961470 -3.240008 91.647429 
lradius 59.930062 
lwrist -6.972454 
lhand -12.231610 -10.365576 
lfingers 0.000000 
lthumb 13.833835 19.154395 
rfemur -23.379826 -5.144017 22.262757 
rtibia 37.790615 
rfoot -7.118397 -13.822059 
rtoes 21.187916 
lfemur 10.790166 12.698318 -16.546908 
ltibia 49.046166 
lfoot 2.112152 18.783508 
ltoes 17.970119 
18
root -8.007610 16.029226 -22.255372 -8.063860 1.119515 12.245498
lowerback 1.920819 0.766491 -7.244994 
upperback 6.184156 1.576770 -1.515005 
thorax 5.245504 0.642372 2.527366 
lowerneck -8.305953 -12.442596 -14.456940 
upperneck 22.089055 -17.221959 13.517698 
head 10.988336 -7.550100 4.925962 
rclavicle 0.000000 0.000000 
rhumerus -48.241326 -31.476332 -69.205295 
rradius 33.617755 
rwrist 1.439165 
rhand -15.895368 -0.408376 
rfingers 0.000000 
rthumb 10.301132 -30.136078 
lclavicle 0.000000 0.000000 
lhumerus -10.484990 -2.824454 91.573283 
lradius 59.915129 
lwrist -7.206514 
lhand -12.218265 -10.359740 
lfingers 0.000000 
lthumb 13.846660 19.159386 
rfemur -23.092105 -5.289097 22.612057 
rtibia 38.269802 
rfoot -6.892845 -13.262405 
rtoes 21.853738 
lfemur 10.119922 13.064527 -15.970015 
ltibia 50.776504 
lfoot 1.856077 20.109713 
ltoes 20.447932 
19
root -8.024713 16.015024 -22.155449 -8.301400 0.709838 12.148546
lowerback 2.107576 0.786670 -7.179658 
upperback 6.231719 1.586198 -1.424720 
thorax 5.186835 0.649513 2.581795 
lowerneck -8.400619 -12.350831 -14.470861 
upperneck 22.007777 -17.069359 13.458857 
head 10.946001 -7.492004 4.926498 
rclavicle 0.000000 0.000000 
rhumerus -47.730832 -31.258404 -69.458673 
rradius 33.589263 
rwrist 1.849947 
rhand -15.800805 -0.500212 
rfingers 0.000000 
rthumb 10.392293 -30.223349 
lclavicle 0.000000 0.000000 
lhumerus -10.928978 -2.379193 91.513883 
lradius 59.921177 
lwrist -7.099368 
lhand -12.152929 -10.258247 
lfingers 0.000000 
lthumb 13.909613 19.256513 
rfemur -22.751221 -5.385668 22.866002 
rtibia 38.714320 
rfoot -6.690902 -12.669310 
rtoes 22.001738 
lfemur 9.461607 13.243522 -15.581606 
ltibia 52.444925 
lfoot 1.300521 21.616300 
ltoes 24.282591 
20
root -8.045797 16.001901 -22.053449 -8.551384 0.330116 12.038431
lowerback 2.258309 0.793385 -7.099144 
upperback 6.309884 1.588127 -1.366578 
thorax 5.183370 0.653746 2.595343 
lowerneck -8.492432 -12.264939 -14.513640 
upperneck 21.952103 -16.940514 13.483055 
head 10.928381 -7.436517 4.958691 
rclavicle 0.000000 0.000000 
rhumerus -47.210064 -31.130266 -69.741328 
rradius 33.566307 
rwrist 2.132851 
rhand -15.401329 -0.444338 
rfingers 0.000000 
rthumb 10.777663 -30.147669 
lclavicle 0.000000 0.000000 
lhumerus -11.312834 -1.657640 91.358963 
lradius 59.727442 
lwrist -8.071507 
lhand -11.800208 -10.527638 
lfingers 0.000000 
lthumb 14.249480 18.963352 
rfemur -22.352378 -5.459794 23.127290 
rtibia 39.121201 
rfoot -6.684784 -12.132180 
rtoes 21.162479 
lfemur 8.800717 13.321548 -15.221149 
ltibia 54.064961 
lfoot -0.025668 22.742414 
ltoes 27.248494 
21
root -8.067466 15.989951 -21.953076 -8.779694 -0.033773 11.909899
lowerback 2.412015 0.810181 -6.981384 
upperback 6.362196 1.601640 -1.336176 
thorax 5.150504 0.667286 2.559043 
lowerneck -8.467119 -12.170526 -14.465789 
upperneck 21.809551 -16.825278 13.545451 
head 10.852930 -7.382430 4.993570 
rclavicle 0.000000 0.000000 
rhumerus -46.760003 -31.020232 -70.069345 
rradius 33.540948 
rwrist 2.487893 
rhand -15.096602 -0.296983 
rfingers 0.000000 
rthumb 11.071569 -29.984990 
lclavicle 0.000000 0.000000 
lhumerus -11.713444 -0.993198 91.132915 
lradius 59.410277 
lwrist -9.390602 
lhand -11.498000 -10.941004 
lfingers 0.000000 
lthumb 14.540656 18.529381 
rfemur -21.944286 -5.524725 23.392802 
rtibia 39.478236 
rfoot -6.811525 -11.672679 
rtoes 20.216413 
lfemur 8.111518 13.413267 -14.843642 
ltibia 55.653818 
lfoot -1.851292 23.396905 
ltoes 28.599507 
22
root -8.089308 15.976015 -21.855872 -8.992563 -0.368858 11.713266
lowerback 2.573183 0.830937 -6.829177 
upperback 6.400458 1.615652 -1.279073 
thorax 5.097800 0.681953 2.530944 
lowerneck -8.422851 -12.099253 -14.304590 
upperneck 21.652555 -16.734390 13.486646 
head 10.748740 -7.343900 4.962610 
rclavicle 0.000000 0.000000 
rhumerus -46.390877 -30.813049 -70.417154 
rradius 33.668029 
rwrist 2.753600 
rhand -14.897410 -0.263997 
rfingers 0.000000 
rthumb 11.263654 -29.941554 
lclavicle 0.000000 0.000000 
lhumerus -12.128899 -0.667103 90.978406 
lradius 59.203218 
lwrist -9.443501 
lhand -11.558888 -10.923296 
lfingers 0.000000 
lthumb 14.482031 18.551302 
rfemur -21.521637 -5.574891 23.729449 
rtibia 39.776466 
rfoot -7.040351 -11.307105 
rtoes 19.656937 
lfemur 7.444450 13.427552 -14.436434 
ltibia 57.205885 
lfoot -4.569830 23.492560 
ltoes 32.677910 
23
root -8.113941 15.964755 -21.759254 -9.235993 -0.643849 11.476763
lowerback 2.777923 0.794550 -6.627566 
upperback 6.459279 1.553793 -1.223211 
thorax 5.049857 0.661837 2.472459 
lowerneck -8.502568 -12.021176 -14.225556 
upperneck 21.607550 -16.625855 13.461398 
head 10.719050 -7.291535 4.955155 
rclavicle 0.000000 0.000000 
rhumerus -45.883987 -30.553960 -70.877816 
rradius 33.770273 
rwrist 2.597369 
rhand -14.915563 -0.212596 
rfingers 0.000000 
rthumb 11.246223 -29.891094 
lclavicle 0.000000 0.000000 
lhumerus -12.581177 -0.405604 90.756257 
lradius 59.103717 
lwrist -9.158046 
lhand -11.588653 -10.843547 
lfingers 0.000000 
lthumb 14.453351 18.633104 
rfemur -21.019232 -5.682118 24.103380 
rtibia 40.008928 
rfoot -7.250531 -10.986879 
rtoes 19.267783 
lfemur 6.786509 13.377420 -13.975372 
ltibia 58.667233 
lfoot -6.221695 23.310884 
ltoes 34.584676 
